<svg xmlns="http://www.w3.org/2000/svg" xmlns:xlink="http://www.w3.org/1999/xlink" viewBox="0 0 363 252.52"><defs><style>.cls-1{isolation:isolate;}.cls-2,.cls-3{mix-blend-mode:multiply;}.cls-2{fill:url(#linear-gradient);}.cls-3{fill:url(#linear-gradient-2);}.cls-4{fill:#9fa0a4;}.cls-5{fill:#f8f9f9;}.cls-6{fill:url(#linear-gradient-3);}.cls-7{fill:#6f7072;}.cls-8{fill:url(#linear-gradient-4);}.cls-9{fill:url(#radial-gradient);}.cls-10,.cls-25{fill:#fff;}.cls-11{fill:url(#linear-gradient-5);}.cls-12{fill:url(#linear-gradient-6);}.cls-13{fill:url(#radial-gradient-2);}.cls-14{fill:url(#linear-gradient-7);}.cls-15{fill:#8e8f91;}.cls-16{fill:#7f7f7f;}.cls-17{fill:#c2c3c7;}.cls-18{fill:url(#linear-gradient-8);}.cls-19{fill:#404040;}.cls-20{fill:#2d2d2d;}.cls-21{fill:#fdfdfd;}.cls-22{fill:#7c7d7f;}.cls-23{fill:#54c7ef;}.cls-24{fill:url(#linear-gradient-9);}.cls-25{opacity:0.4;}.cls-26{fill:#303030;}.cls-27{fill:url(#linear-gradient-10);}.cls-28{fill:url(#linear-gradient-11);}.cls-29{fill:url(#linear-gradient-12);}.cls-30{fill:url(#linear-gradient-13);}.cls-31{fill:url(#linear-gradient-14);}.cls-32{fill:url(#linear-gradient-15);}.cls-33{fill:url(#linear-gradient-16);}.cls-34{fill:url(#linear-gradient-17);}.cls-35{fill:url(#linear-gradient-18);}.cls-36{fill:url(#linear-gradient-19);}.cls-37{fill:url(#linear-gradient-20);}.cls-38{fill:url(#linear-gradient-21);}.cls-39{fill:url(#linear-gradient-22);}.cls-40{fill:url(#linear-gradient-23);}.cls-41{fill:url(#linear-gradient-24);}.cls-42{fill:url(#linear-gradient-25);}.cls-43{fill:url(#linear-gradient-26);}.cls-44{fill:url(#linear-gradient-27);}.cls-45{fill:url(#linear-gradient-28);}.cls-46{fill:url(#linear-gradient-29);}.cls-47{fill:url(#linear-gradient-30);}.cls-48{fill:url(#linear-gradient-31);}.cls-49{fill:url(#linear-gradient-32);}.cls-50{fill:url(#linear-gradient-33);}.cls-51{fill:url(#linear-gradient-34);}.cls-52{fill:url(#linear-gradient-35);}.cls-53{fill:url(#linear-gradient-36);}.cls-54{fill:url(#linear-gradient-37);}.cls-55{fill:#f8f8f8;}</style><linearGradient id="linear-gradient" x1="181.25" y1="242.29" x2="181.25" y2="252.88" gradientUnits="userSpaceOnUse"><stop offset="0.04" stop-color="#2d2d2d"/><stop offset="0.24" stop-color="#6c6c6c"/><stop offset="0.43" stop-color="#a0a0a0"/><stop offset="0.6" stop-color="#c9c9c9"/><stop offset="0.76" stop-color="#e7e7e7"/><stop offset="0.9" stop-color="#f9f9f9"/><stop offset="1" stop-color="#fff"/></linearGradient><linearGradient id="linear-gradient-2" x1="181.25" y1="237.49" x2="181.25" y2="251.89" gradientUnits="userSpaceOnUse"><stop offset="0.39" stop-color="#2d2d2d"/><stop offset="0.51" stop-color="#6c6c6c"/><stop offset="0.63" stop-color="#a0a0a0"/><stop offset="0.75" stop-color="#c9c9c9"/><stop offset="0.85" stop-color="#e7e7e7"/><stop offset="0.93" stop-color="#f9f9f9"/><stop offset="1" stop-color="#fff"/></linearGradient><linearGradient id="linear-gradient-3" x1="36.83" y1="-4.13" x2="36.83" y2="16.91" gradientUnits="userSpaceOnUse"><stop offset="0" stop-color="#cacbd0"/><stop offset="1" stop-color="#999a9e"/></linearGradient><linearGradient id="linear-gradient-4" x1="36.79" y1="2.88" x2="36.79" y2="4.87" gradientUnits="userSpaceOnUse"><stop offset="0" stop-color="#fff"/><stop offset="0.08" stop-color="#f2f2f3"/><stop offset="0.24" stop-color="#d0d1d3"/><stop offset="0.44" stop-color="#9a9b9f"/><stop offset="0.45" stop-color="#999a9e"/><stop offset="1" stop-color="#4c4c4e"/></linearGradient><radialGradient id="radial-gradient" cx="36.79" cy="3.2" r="1.83" gradientUnits="userSpaceOnUse"><stop offset="0" stop-color="#fff"/><stop offset="0.18" stop-color="#ebebec"/><stop offset="0.54" stop-color="#b9b9ba"/><stop offset="0.98" stop-color="#747477"/></radialGradient><linearGradient id="linear-gradient-5" x1="326.17" y1="-4.13" x2="326.17" y2="16.91" xlink:href="#linear-gradient-3"/><linearGradient id="linear-gradient-6" x1="326.12" y1="2.88" x2="326.12" y2="4.87" xlink:href="#linear-gradient-4"/><radialGradient id="radial-gradient-2" cx="326.12" cy="3.2" r="1.83" xlink:href="#radial-gradient"/><linearGradient id="linear-gradient-7" x1="181.5" y1="-45.46" x2="181.5" y2="285.93" xlink:href="#linear-gradient-3"/><linearGradient id="linear-gradient-8" x1="181.5" y1="15.51" x2="181.5" y2="286.36" gradientUnits="userSpaceOnUse"><stop offset="0" stop-color="#fdfdfd"/><stop offset="0.7" stop-color="#f9fafa"/><stop offset="1" stop-color="#f5f6f6"/></linearGradient><linearGradient id="linear-gradient-9" x1="102.79" y1="231.72" x2="102.79" y2="238.19" gradientUnits="userSpaceOnUse"><stop offset="0" stop-color="#2ab9f1"/><stop offset="0.37" stop-color="#1289c6"/><stop offset="1" stop-color="#144b78"/></linearGradient><linearGradient id="linear-gradient-10" x1="279.04" y1="237.66" x2="279.04" y2="243.23" gradientUnits="userSpaceOnUse"><stop offset="0" stop-color="#eae9e7"/><stop offset="0.17" stop-color="#dfdedc"/><stop offset="0.48" stop-color="#c2c1bd"/><stop offset="0.55" stop-color="#bab9b5"/><stop offset="0.62" stop-color="#acaba7"/><stop offset="0.76" stop-color="#878684"/><stop offset="0.83" stop-color="#706f6d"/><stop offset="1" stop-color="#3a3a39"/></linearGradient><linearGradient id="linear-gradient-11" x1="253.01" y1="237.68" x2="253.08" y2="243.02" gradientUnits="userSpaceOnUse"><stop offset="0" stop-color="#cd2e24"/><stop offset="0.06" stop-color="#ea777e"/><stop offset="0.4" stop-color="#df3126"/><stop offset="1" stop-color="#3f1814"/></linearGradient><linearGradient id="linear-gradient-12" x1="259.65" y1="237.66" x2="259.65" y2="243.23" gradientUnits="userSpaceOnUse"><stop offset="0" stop-color="#212121"/><stop offset="0" stop-color="#242424"/><stop offset="0.02" stop-color="#4b4b4b"/><stop offset="0.04" stop-color="#686868"/><stop offset="0.06" stop-color="#797979"/><stop offset="0.07" stop-color="#7f7f7f"/><stop offset="0.14" stop-color="#a2a0a1"/><stop offset="0.34" stop-color="#716f70"/><stop offset="0.62" stop-color="#111"/><stop offset="0.8" stop-color="#312f30"/><stop offset="1" stop-color="#11110f"/></linearGradient><linearGradient id="linear-gradient-13" x1="252.43" y1="239.68" x2="252.43" y2="241.04" gradientUnits="userSpaceOnUse"><stop offset="0.2" stop-color="#94251e"/><stop offset="0.25" stop-color="#a9312b"/><stop offset="0.32" stop-color="#bf3d39"/><stop offset="0.39" stop-color="#d04643"/><stop offset="0.49" stop-color="#db4d4b"/><stop offset="0.63" stop-color="#e2514f"/><stop offset="1" stop-color="#e45250"/></linearGradient><linearGradient id="linear-gradient-14" x1="252.43" y1="248.68" x2="252.43" y2="249.14" gradientTransform="matrix(1, -0.03, 0, 1, 0, -3.91)" gradientUnits="userSpaceOnUse"><stop offset="0.2" stop-color="#cd2e24"/><stop offset="0.21" stop-color="#ce3128"/><stop offset="0.27" stop-color="#d74743"/><stop offset="0.33" stop-color="#de5959"/><stop offset="0.41" stop-color="#e3666a"/><stop offset="0.5" stop-color="#e77075"/><stop offset="0.63" stop-color="#e9757c"/><stop offset="1" stop-color="#ea777e"/></linearGradient><linearGradient id="linear-gradient-15" x1="252.43" y1="224.63" x2="252.43" y2="225.17" gradientTransform="matrix(1, 0.04, 0, 1, 0, 6.61)" gradientUnits="userSpaceOnUse"><stop offset="0" stop-color="#681e19"/><stop offset="0.51" stop-color="#6a1e19"/><stop offset="0.69" stop-color="#711f1a"/><stop offset="0.82" stop-color="#7c211b"/><stop offset="0.92" stop-color="#8d241d"/><stop offset="1" stop-color="#9f271f"/></linearGradient><linearGradient id="linear-gradient-16" x1="282.38" y1="237.77" x2="282.38" y2="242.96" xlink:href="#linear-gradient-11"/><linearGradient id="linear-gradient-17" x1="270.08" y1="239.61" x2="270.08" y2="241.77" gradientUnits="userSpaceOnUse"><stop offset="0" stop-color="#fff"/><stop offset="0.23" stop-color="#f4f4f4"/><stop offset="0.64" stop-color="#d8d7d5"/><stop offset="1" stop-color="#bab9b5"/></linearGradient><linearGradient id="linear-gradient-18" x1="270.08" y1="239.61" x2="270.08" y2="241.77" gradientUnits="userSpaceOnUse"><stop offset="0.12" stop-color="#00387e"/><stop offset="1" stop-color="#002054"/></linearGradient><linearGradient id="linear-gradient-19" x1="225.11" y1="237.66" x2="225.11" y2="243.23" xlink:href="#linear-gradient-10"/><linearGradient id="linear-gradient-20" x1="199.08" y1="237.68" x2="199.16" y2="243.02" gradientUnits="userSpaceOnUse"><stop offset="0" stop-color="#21bd5d"/><stop offset="0.06" stop-color="#6fda82"/><stop offset="0.4" stop-color="#23cf65"/><stop offset="1" stop-color="#0f2f1e"/></linearGradient><linearGradient id="linear-gradient-21" x1="205.72" y1="237.66" x2="205.72" y2="243.23" xlink:href="#linear-gradient-12"/><linearGradient id="linear-gradient-22" x1="198.51" y1="239.68" x2="198.51" y2="241.04" gradientUnits="userSpaceOnUse"><stop offset="0.2" stop-color="#1b8443"/><stop offset="0.25" stop-color="#27994f"/><stop offset="0.32" stop-color="#34af5a"/><stop offset="0.39" stop-color="#3ec064"/><stop offset="0.49" stop-color="#45cb6a"/><stop offset="0.63" stop-color="#49d26e"/><stop offset="1" stop-color="#4ad46f"/></linearGradient><linearGradient id="linear-gradient-23" x1="198.51" y1="247.24" x2="198.51" y2="247.7" gradientTransform="matrix(1, -0.03, 0, 1, 0, -3.91)" gradientUnits="userSpaceOnUse"><stop offset="0.2" stop-color="#21bd5d"/><stop offset="0.25" stop-color="#34c466"/><stop offset="0.31" stop-color="#4acc70"/><stop offset="0.39" stop-color="#5bd278"/><stop offset="0.49" stop-color="#66d77e"/><stop offset="0.62" stop-color="#6dd981"/><stop offset="1" stop-color="#6fda82"/></linearGradient><linearGradient id="linear-gradient-24" x1="198.51" y1="226.9" x2="198.51" y2="227.44" gradientTransform="matrix(1, 0.04, 0, 1, 0, 6.61)" gradientUnits="userSpaceOnUse"><stop offset="0" stop-color="#15582f"/><stop offset="0.51" stop-color="#155a30"/><stop offset="0.69" stop-color="#166133"/><stop offset="0.82" stop-color="#186c39"/><stop offset="0.92" stop-color="#1a7d41"/><stop offset="1" stop-color="#1c8f49"/></linearGradient><linearGradient id="linear-gradient-25" x1="228.45" y1="237.77" x2="228.45" y2="242.96" xlink:href="#linear-gradient-20"/><linearGradient id="linear-gradient-26" x1="216.16" y1="239.61" x2="216.16" y2="241.77" xlink:href="#linear-gradient-17"/><linearGradient id="linear-gradient-27" x1="216.16" y1="239.61" x2="216.16" y2="241.77" xlink:href="#linear-gradient-18"/><linearGradient id="linear-gradient-28" x1="171.05" y1="237.66" x2="171.05" y2="243.23" xlink:href="#linear-gradient-10"/><linearGradient id="linear-gradient-29" x1="145.02" y1="237.68" x2="145.09" y2="243.02" gradientUnits="userSpaceOnUse"><stop offset="0" stop-color="#2154bd"/><stop offset="0.06" stop-color="#6faada"/><stop offset="0.4" stop-color="#235ccf"/><stop offset="1" stop-color="#0f172f"/></linearGradient><linearGradient id="linear-gradient-30" x1="151.66" y1="237.66" x2="151.66" y2="243.23" xlink:href="#linear-gradient-12"/><linearGradient id="linear-gradient-31" x1="144.44" y1="239.68" x2="144.44" y2="241.04" gradientUnits="userSpaceOnUse"><stop offset="0.2" stop-color="#1b3e84"/><stop offset="0.25" stop-color="#275199"/><stop offset="0.32" stop-color="#3465af"/><stop offset="0.39" stop-color="#3e74c0"/><stop offset="0.49" stop-color="#457fcb"/><stop offset="0.63" stop-color="#4985d2"/><stop offset="1" stop-color="#4a87d4"/></linearGradient><linearGradient id="linear-gradient-32" x1="144.44" y1="245.8" x2="144.44" y2="246.26" gradientTransform="matrix(1, -0.03, 0, 1, 0, -3.91)" gradientUnits="userSpaceOnUse"><stop offset="0.2" stop-color="#2154bd"/><stop offset="0.2" stop-color="#2154bd"/><stop offset="0.26" stop-color="#396fc6"/><stop offset="0.33" stop-color="#4d85cd"/><stop offset="0.4" stop-color="#5c96d3"/><stop offset="0.5" stop-color="#67a1d7"/><stop offset="0.63" stop-color="#6da8d9"/><stop offset="1" stop-color="#6faada"/></linearGradient><linearGradient id="linear-gradient-33" x1="144.44" y1="229.17" x2="144.44" y2="229.71" gradientTransform="matrix(1, 0.04, 0, 1, 0, 6.61)" gradientUnits="userSpaceOnUse"><stop offset="0" stop-color="#152b58"/><stop offset="0.51" stop-color="#152c5a"/><stop offset="0.69" stop-color="#162e61"/><stop offset="0.82" stop-color="#18336c"/><stop offset="0.92" stop-color="#1a3a7d"/><stop offset="1" stop-color="#1c418f"/></linearGradient><linearGradient id="linear-gradient-34" x1="174.39" y1="237.77" x2="174.39" y2="242.96" xlink:href="#linear-gradient-29"/><linearGradient id="linear-gradient-35" x1="162.09" y1="239.61" x2="162.09" y2="241.77" xlink:href="#linear-gradient-17"/><linearGradient id="linear-gradient-36" x1="162.09" y1="239.61" x2="162.09" y2="241.77" xlink:href="#linear-gradient-18"/><linearGradient id="linear-gradient-37" x1="181.5" y1="240.95" x2="181.5" y2="245.72" gradientUnits="userSpaceOnUse"><stop offset="0" stop-color="#cacbd0"/><stop offset="0.24" stop-color="#c7c8cd"/><stop offset="0.4" stop-color="#bfc0c4"/><stop offset="0.55" stop-color="#b0b1b5"/><stop offset="0.68" stop-color="#9b9c9f"/><stop offset="0.8" stop-color="#808083"/><stop offset="0.91" stop-color="#5f6061"/><stop offset="1" stop-color="#404040"/></linearGradient></defs><g class="cls-1"><g id="Layer_2" data-name="Layer 2"><g id="layer"><path class="cls-2" d="M290.59,252.52H71.91c-3.65,0-7.41-9.93-7.41-9.93H298S294.24,252.52,290.59,252.52Z"/><path class="cls-3" d="M350.08,252H12.42C6.79,252,1,237.59,1,237.59H361.51S355.71,252,350.08,252Z"/><path class="cls-4" d="M40.24,6.35H38.67a1.91,1.91,0,0,1,.08.54,1.94,1.94,0,1,1-3.87,0A1.91,1.91,0,0,1,35,6.35h-1.5V9.23h6.78Z"/><path class="cls-5" d="M40.93,0H32.74a3.88,3.88,0,0,0-3.88,3.87v.88A3.88,3.88,0,0,1,32.74.87h8.19a3.88,3.88,0,0,1,3.88,3.88V3.87A3.88,3.88,0,0,0,40.93,0Z"/><path class="cls-6" d="M40.93.47H32.74a3.88,3.88,0,0,0-3.88,3.88V14.89h16V4.35A3.88,3.88,0,0,0,40.93.47ZM36.82,9.09A1.93,1.93,0,0,1,36,5.41V4a.8.8,0,0,1,1.59,0V5.37a1.94,1.94,0,0,1-.76,3.72Z"/><path class="cls-7" d="M36.79,3a1.13,1.13,0,0,0-1.13,1.13A1.17,1.17,0,0,0,36,5V4a.8.8,0,0,1,1.59,0V5a1.17,1.17,0,0,0,.33-.81A1.13,1.13,0,0,0,36.79,3Z"/><circle class="cls-8" cx="36.79" cy="3.95" r="1.13"/><path class="cls-9" d="M35.77,4a1,1,0,1,1,1,1A1,1,0,0,1,35.77,4Z"/><path class="cls-10" d="M36.75,3.15a1,1,0,0,1,1,.94s0,0,0,0a1,1,0,0,0-2,0s0,0,0,0A1,1,0,0,1,36.75,3.15Z"/><path class="cls-7" d="M36.34,4.7a.07.07,0,0,1-.11,0h0a.08.08,0,0,1,0-.11l1-1.12a.08.08,0,0,1,.13,0h0a.12.12,0,0,1,0,.14Z"/><path class="cls-7" d="M36.16,3.61a.1.1,0,0,1,0-.14h0s.08,0,.12,0l1,1.12a.08.08,0,0,1,0,.11h0a.07.07,0,0,1-.11,0Z"/><path class="cls-4" d="M329.57,6.35H328a1.91,1.91,0,0,1,.08.54,1.94,1.94,0,0,1-3.88,0,1.91,1.91,0,0,1,.08-.54h-1.5V9.23h6.78Z"/><path class="cls-5" d="M330.26,0h-8.19a3.88,3.88,0,0,0-3.88,3.87v.88A3.88,3.88,0,0,1,322.07.87h8.19a3.88,3.88,0,0,1,3.88,3.88V3.87A3.88,3.88,0,0,0,330.26,0Z"/><path class="cls-11" d="M330.26.47h-8.19a3.88,3.88,0,0,0-3.88,3.88V14.89h15.95V4.35A3.88,3.88,0,0,0,330.26.47Zm-4.11,8.62a1.93,1.93,0,0,1-.82-3.68V4a.79.79,0,0,1,1.58,0V5.37a1.94,1.94,0,0,1-.76,3.72Z"/><path class="cls-7" d="M326.12,3A1.13,1.13,0,0,0,325.33,5V4a.79.79,0,0,1,1.58,0V5A1.14,1.14,0,0,0,326.12,3Z"/><circle class="cls-12" cx="326.12" cy="3.95" r="1.12"/><path class="cls-13" d="M325.1,4a1,1,0,1,1,1,1A1,1,0,0,1,325.1,4Z"/><path class="cls-10" d="M326.09,3.15a1,1,0,0,1,1,.94s0,0,0,0a1,1,0,0,0-2,0s0,0,0,0A1,1,0,0,1,326.09,3.15Z"/><path class="cls-7" d="M325.67,4.7a.07.07,0,0,1-.11,0h0a.08.08,0,0,1,0-.11l1-1.12a.07.07,0,0,1,.12,0h0a.11.11,0,0,1,0,.14Z"/><path class="cls-7" d="M325.49,3.61a.11.11,0,0,1,0-.14h0a.07.07,0,0,1,.12,0l1,1.12a.08.08,0,0,1,0,.11h0a.07.07,0,0,1-.11,0Z"/><rect class="cls-14" x="0.5" y="10.54" width="362" height="234" rx="9"/><rect class="cls-15" x="7.5" y="17.54" width="348" height="220" rx="2"/><path class="cls-16" d="M9.5,19.54h344s1.37-1.22,1.46-1.36a2,2,0,0,0-1.46-.64H9.5a2,2,0,0,0-1.51.7Z"/><path class="cls-17" d="M353.5,235.54H9.46L8.14,237a2,2,0,0,0,1.36.54h344a2,2,0,0,0,1.45-.63Z"/><rect class="cls-18" x="8.5" y="18.54" width="346" height="218"/><path class="cls-19" d="M354,21.59V19.81a.71.71,0,0,0-.62-.77h-1.63V10h1.75a9.51,9.51,0,0,1,9.5,9.5v2.05Z"/><path class="cls-20" d="M355.66,21c0-3.27-.41-3.48-2.7-3.48h-1.21V19h1.63a.71.71,0,0,1,.62.77v1.78h9V21Z"/><path class="cls-15" d="M360.51,14.15a8.78,8.78,0,0,0-7.13-3.74h-1.64v1h1.8A10.07,10.07,0,0,1,360.51,14.15Z"/><path class="cls-19" d="M9,21.59V19.81A.71.71,0,0,1,9.62,19h1.63V10H9.5A9.51,9.51,0,0,0,0,19.54v2.05Z"/><path class="cls-20" d="M7.34,21c0-3.27.41-3.48,2.7-3.48h1.21V19H9.62a.71.71,0,0,0-.62.77v1.78H0V21Z"/><path class="cls-15" d="M2.49,14.15a8.78,8.78,0,0,1,7.13-3.74h1.64v1H9.46A10.07,10.07,0,0,0,2.49,14.15Z"/><path class="cls-19" d="M9,233.38v1.78a.71.71,0,0,0,.62.77h1.63v9H9.5a9.51,9.51,0,0,1-9.5-9.5v-2.05Z"/><path class="cls-20" d="M9.62,235.93a.71.71,0,0,1-.62-.77v-1.78H7.38v1.89c.14,2,.73,2.16,2.66,2.16h1.21v-1.5Z"/><path class="cls-20" d="M9.73,243.51a10,10,0,0,1-9.62-6.74,9.51,9.51,0,0,0,9.39,8.16h1.75v-1.42Z"/><path class="cls-19" d="M353.7,233.38v1.78a.71.71,0,0,1-.62.77h-1.62v9h1.74a9.51,9.51,0,0,0,9.5-9.5v-2.05Z"/><path class="cls-20" d="M353.08,235.93a.71.71,0,0,0,.62-.77v-1.78h1.62v1.89c-.14,2-.73,2.16-2.66,2.16h-1.2v-1.5Z"/><path class="cls-20" d="M353,243.52a10,10,0,0,0,9.62-6.75,9.5,9.5,0,0,1-9.39,8.16h-1.74v-1.41Z"/><path class="cls-21" d="M10.73,235.32V20.77H351.26S306.07,85.85,227.34,140.44C116.62,217.2,10.73,235.32,10.73,235.32Z"/><path class="cls-5" d="M351,11.37a.17.17,0,0,1-.17.17H12.17a.17.17,0,0,1-.17-.17h0a.16.16,0,0,1,.17-.16H350.83a.16.16,0,0,1,.17.16Z"/><path class="cls-22" d="M351.25,244.05c0,.17-.08.31-.17.31H11.64c-.09,0-.17-.14-.17-.31h0c0-.17.08-.31.17-.31H351.08c.09,0,.17.14.17.31Z"/><path class="cls-23" d="M124.76,236.27a3.46,3.46,0,0,1-3.45,3.46h-37a3.46,3.46,0,0,1-3.45-3.46v-1c0-1.91,2.17-4.16,4-4.16h35.45c1.8,0,4.51,2.25,4.51,4.16Z"/><rect class="cls-24" x="80.83" y="231.93" width="43.93" height="8.62" rx="3.45"/><path class="cls-19" d="M80.83,237.55v2.14a3.46,3.46,0,0,0,3.45,3.45h37a3.46,3.46,0,0,0,3.45-3.45v-2.14Z"/><path class="cls-25" d="M121.31,231.93h-37a3.46,3.46,0,0,0-3.45,3.46v.36a3.45,3.45,0,0,1,3.45-3.45h37a3.45,3.45,0,0,1,3.45,3.45v-.36A3.46,3.46,0,0,0,121.31,231.93Z"/><rect class="cls-26" x="80.83" y="237.55" width="43.93" height="0.39"/><path class="cls-26" d="M121.37,242.75H84.22a3.46,3.46,0,0,1-3.36-2.63,3.46,3.46,0,0,0,3.42,3h37a3.46,3.46,0,0,0,3.42-3A3.46,3.46,0,0,1,121.37,242.75Z"/><rect class="cls-27" x="261.58" y="237.5" width="34.92" height="5.68" rx="0.65"/><path class="cls-28" d="M257.73,237.51h-.08l-8.74.36a.58.58,0,0,0-.56.58v3.78a.59.59,0,0,0,.56.58l8.74.36h.08Z"/><path class="cls-29" d="M261.58,237.54a.78.78,0,0,0-.22,0H258a.73.73,0,0,0-.3.07v5.54a.73.73,0,0,0,.3.07h3.35a.78.78,0,0,0,.22,0Z"/><path class="cls-30" d="M256.13,240.87h-7.78v-1.15h7.78c.32,0,.38.26.38.57S256.45,240.87,256.13,240.87Z"/><path class="cls-31" d="M256.13,238l-7.69.2a.22.22,0,0,0-.09.17v.23l7.78-.21c.32,0,.38-.1.38-.21S256.45,237.94,256.13,238Z"/><path class="cls-32" d="M256.51,242.37c0-.2-.06-.36-.38-.38l-7.78-.32v.56a.77.77,0,0,0,0,.15l7.76.33C256.45,242.72,256.51,242.56,256.51,242.37Z"/><path class="cls-10" d="M296.12,237.83a.16.16,0,0,1-.16.16H261.9a.16.16,0,0,1-.16-.16h0a.17.17,0,0,1,.16-.17H296a.17.17,0,0,1,.16.17Z"/><rect class="cls-33" x="273.44" y="239.07" width="17.87" height="2.27"/><rect class="cls-34" x="267.42" y="239.07" width="5.33" height="2.27"/><polygon class="cls-35" points="272.75 239.07 267.42 241.34 272.75 241.34 272.75 239.07"/><rect class="cls-36" x="207.65" y="237.5" width="34.92" height="5.68" rx="0.65"/><path class="cls-37" d="M203.8,237.51h-.08l-8.73.36a.58.58,0,0,0-.56.58v3.78a.59.59,0,0,0,.56.58l8.73.36h.08Z"/><path class="cls-38" d="M207.66,237.54a.85.85,0,0,0-.22,0h-3.36a.73.73,0,0,0-.29.07v5.54a.73.73,0,0,0,.29.07h3.36a.85.85,0,0,0,.22,0Z"/><path class="cls-39" d="M202.21,240.87h-7.78v-1.15h7.78c.32,0,.38.26.38.57S202.53,240.87,202.21,240.87Z"/><path class="cls-40" d="M202.21,238l-7.7.2a.25.25,0,0,0-.08.17v.23l7.78-.21c.32,0,.38-.1.38-.21S202.53,237.94,202.21,238Z"/><path class="cls-41" d="M202.59,242.37c0-.2-.06-.36-.38-.38l-7.78-.32v.56a.77.77,0,0,0,0,.15l7.76.33C202.53,242.72,202.59,242.56,202.59,242.37Z"/><path class="cls-10" d="M242.2,237.83a.16.16,0,0,1-.16.16H208a.17.17,0,0,1-.17-.16h0a.18.18,0,0,1,.17-.17H242a.17.17,0,0,1,.16.17Z"/><rect class="cls-42" x="219.52" y="239.07" width="17.87" height="2.27"/><rect class="cls-43" x="213.49" y="239.07" width="5.33" height="2.27"/><polygon class="cls-44" points="218.82 239.07 213.49 241.34 218.82 241.34 218.82 239.07"/><rect class="cls-45" x="153.59" y="237.5" width="34.92" height="5.68" rx="0.65"/><path class="cls-46" d="M149.74,237.51h-.09l-8.73.36a.58.58,0,0,0-.56.58v3.78a.59.59,0,0,0,.56.58l8.73.36h.09Z"/><path class="cls-47" d="M153.59,237.54a.78.78,0,0,0-.22,0H150a.73.73,0,0,0-.3.07v5.54a.73.73,0,0,0,.3.07h3.35a.78.78,0,0,0,.22,0Z"/><path class="cls-48" d="M148.14,240.87h-7.78v-1.15h7.78c.32,0,.38.26.38.57S148.46,240.87,148.14,240.87Z"/><path class="cls-49" d="M148.14,238l-7.69.2a.22.22,0,0,0-.09.17v.23l7.78-.21c.32,0,.38-.1.38-.21S148.46,237.94,148.14,238Z"/><path class="cls-50" d="M148.52,242.37c0-.2-.06-.36-.38-.38l-7.78-.32v.56a.77.77,0,0,0,0,.15l7.76.33C148.46,242.72,148.52,242.56,148.52,242.37Z"/><path class="cls-10" d="M188.13,237.83a.16.16,0,0,1-.16.16H153.91a.16.16,0,0,1-.16-.16h0a.17.17,0,0,1,.16-.17H188a.17.17,0,0,1,.16.17Z"/><rect class="cls-51" x="165.45" y="239.07" width="17.87" height="2.27"/><rect class="cls-52" x="159.43" y="239.07" width="5.33" height="2.27"/><polygon class="cls-53" points="164.75 239.07 159.43 241.34 164.75 241.34 164.75 239.07"/><path class="cls-54" d="M63.41,242.65v.73a8.19,8.19,0,0,0,6.48,3.18H293.11a8.19,8.19,0,0,0,6.48-3.18v-.73Z"/><path class="cls-55" d="M63.41,242.65v-.36H299.59v.36Z"/></g></g></g></svg>